<?xml version="1.0" encoding="UTF-8" standalone="no"?>
<!-- Created with Inkscape (http://www.inkscape.org/) -->

<svg
   xmlns:dc="http://purl.org/dc/elements/1.1/"
   xmlns:cc="http://creativecommons.org/ns#"
   xmlns:rdf="http://www.w3.org/1999/02/22-rdf-syntax-ns#"
   xmlns:svg="http://www.w3.org/2000/svg"
   xmlns="http://www.w3.org/2000/svg"
   xmlns:sodipodi="http://sodipodi.sourceforge.net/DTD/sodipodi-0.dtd"
   xmlns:inkscape="http://www.inkscape.org/namespaces/inkscape"
   width="975"
   height="138"
   viewBox="0 0 975.00001 138"
   id="svg4176"
   version="1.1"
   inkscape:version="0.91 r13725"
   sodipodi:docname="highscore.svg">
  <defs
     id="defs4178" />
  <sodipodi:namedview
     id="base"
     pagecolor="#ffffff"
     bordercolor="#666666"
     borderopacity="1.0"
     inkscape:pageopacity="0.0"
     inkscape:pageshadow="2"
     inkscape:zoom="0.35"
     inkscape:cx="104.0465"
     inkscape:cy="177.14286"
     inkscape:document-units="px"
     inkscape:current-layer="text4154"
     showgrid="false"
     units="px"
     inkscape:window-width="1536"
     inkscape:window-height="801"
     inkscape:window-x="-8"
     inkscape:window-y="-8"
     inkscape:window-maximized="1" />
  <metadata
     id="metadata4181">
    <rdf:RDF>
      <cc:Work
         rdf:about="">
        <dc:format>image/svg+xml</dc:format>
        <dc:type
           rdf:resource="http://purl.org/dc/dcmitype/StillImage" />
        <dc:title></dc:title>
      </cc:Work>
    </rdf:RDF>
  </metadata>
  <g
     inkscape:label="Ebene 1"
     inkscape:groupmode="layer"
     id="layer1"
     transform="translate(0,-914.36216)">
    <g
       style="font-style:normal;font-variant:normal;font-weight:normal;font-stretch:normal;font-size:178.34425354px;line-height:125%;font-family:'Expletus Sans';-inkscape-font-specification:'Expletus Sans';text-align:center;letter-spacing:0px;word-spacing:0px;text-anchor:middle;fill:#ff004e;fill-opacity:1;stroke:#a90034;stroke-width:2.4000001;stroke-linecap:butt;stroke-linejoin:miter;stroke-miterlimit:4;stroke-dasharray:none;stroke-opacity:1"
       id="text4154">
      <path
         d="m 83.15455,974.08821 0,-55.46506 16.9427,0 0,129.65625 -16.9427,0 0,-61.70709 -58.140226,0 q 1.961787,-5.17199 5.350327,-8.73887 3.566885,-3.74523 9.808934,-3.74523 l 42.980965,0 z m -81.8600119,-55.46506 16.9427039,0 0,129.65625 -16.9427039,0 0,-129.65625 z"
         style=""
         id="path4136" />
      <path
         d="m 148.32544,1048.2794 -16.40767,0 0,-129.65625 16.40767,0 0,129.65625 z"
         style=""
         id="path4138" />
      <path
         d="m 237.23562,929.3238 q -9.2739,0 -18.01276,3.38854 -8.73887,3.2102 -15.6943,9.98728 -6.77708,6.77708 -10.879,16.9427 -4.10192,10.16563 -4.10192,23.89813 0,13.73251 4.10192,23.89815 4.10192,9.9873 10.879,16.7643 6.95543,6.7771 15.6943,10.1657 8.73886,3.2102 18.01276,3.2102 3.92358,0 8.91722,-0.5351 5.17198,-0.535 11.05734,-2.4968 l 0,-46.36949 16.40767,0 0,53.50329 q -9.63059,5.172 -19.26118,6.9554 -9.45224,1.7834 -17.12105,1.7834 -13.7325,0 -25.85991,-4.4586 -12.12741,-4.6369 -21.22297,-13.1974 -9.09556,-8.7389 -14.44588,-21.0447 -5.35033,-12.48405 -5.35033,-28.17835 0,-14.98091 5.35033,-27.28667 5.35032,-12.48409 14.44588,-21.22296 9.09556,-8.91721 21.22297,-13.73251 12.12741,-4.99364 25.85991,-4.99364 7.66881,0 16.76436,1.78344 9.09556,1.6051 18.54781,6.06371 l -4.63695,11.59237 q -9.63059,-4.10191 -17.12105,-5.17198 -7.31212,-1.24841 -13.55417,-1.24841 z"
         style=""
         id="path4140" />
      <path
         d="m 376.79557,974.08821 0,-55.46506 16.94271,0 0,129.65625 -16.94271,0 0,-61.70709 -58.14022,0 q 1.96178,-5.17199 5.35032,-8.73887 3.56689,-3.74523 9.80894,-3.74523 l 42.98096,0 z m -81.86001,-55.46506 16.9427,0 0,129.65625 -16.9427,0 0,-129.65625 z"
         style=""
         id="path4142" />
      <path
         d="m 459.80089,929.3238 q -4.99364,0 -8.91722,1.6051 -3.74523,1.42675 -6.42039,4.10192 -2.67516,2.67516 -4.10192,6.24205 -1.24841,3.38854 -1.24841,7.31211 0,6.95543 4.45861,11.94907 4.45861,4.81529 11.23569,8.91721 6.77708,4.10192 14.44588,8.20383 7.84715,3.92358 14.62423,9.09556 6.77708,5.17198 11.23569,12.12741 4.45861,6.95544 4.45861,17.12104 0,6.5987 -2.85351,12.8408 -2.67517,6.242 -8.20384,11.0573 -5.35033,4.8153 -13.19747,7.6688 -7.84715,2.8535 -18.01277,2.8535 -3.74523,0 -8.38218,-0.535 -4.63695,-0.3567 -9.45225,-1.2484 -4.81529,-0.8917 -9.80893,-2.4968 -4.99364,-1.6051 -9.45225,-3.7452 l 4.63695,-11.5924 q 8.02549,3.5669 16.05099,5.172 8.20383,1.6051 14.44588,1.6051 12.66244,0 19.61787,-6.2421 6.95542,-6.4204 6.95542,-15.6943 0,-7.6688 -4.4586,-12.6624 -4.45861,-5.172 -11.05735,-9.27392 -6.59873,-4.10192 -14.44588,-7.84715 -7.84715,-3.92357 -14.44589,-8.73887 -6.59873,-4.99364 -11.05734,-11.77072 -4.45861,-6.77708 -4.45861,-16.76436 0,-6.59874 2.49682,-12.4841 2.67517,-5.88536 7.49046,-10.34396 4.8153,-4.45861 11.41404,-6.95543 6.59873,-2.49682 14.62422,-2.49682 7.66881,0 15.33761,1.24841 7.84715,1.24841 16.9427,4.10192 l -4.81529,11.59238 q -7.6688,-2.31848 -14.26754,-3.03186 -6.42039,-0.89172 -11.41403,-0.89172 z"
         style=""
         id="path4144" />
      <path
         d="m 586.01288,1050.4195 q -13.73251,0 -25.50323,-4.6369 -11.77072,-4.637 -20.50959,-13.1975 -8.73887,-8.7388 -13.7325,-21.0446 -4.8153,-12.30575 -4.8153,-27.8217 0,-14.98092 4.8153,-27.28667 4.99363,-12.4841 13.7325,-21.40131 8.73887,-8.91721 20.50959,-13.73251 11.77072,-4.99364 25.50323,-4.99364 7.49046,0 15.33761,1.6051 8.02549,1.42675 16.22932,4.45861 l -4.63695,11.59237 q -7.84714,-2.49682 -14.26754,-3.56688 -6.42039,-1.07007 -12.66244,-1.07007 -9.2739,0 -17.65608,3.38854 -8.38218,3.38854 -14.80257,10.16563 -6.4204,6.77708 -10.16563,17.12104 -3.74523,10.16563 -3.74523,23.71979 0,12.12741 3.74523,22.1147 3.74523,9.8089 10.16563,16.9427 6.42039,7.1338 14.80257,11.0573 8.38218,3.7453 17.65608,3.7453 6.24205,0 12.84079,-1.6051 6.59873,-1.6051 14.08919,-5.3504 l 4.63695,11.5924 q -8.38218,4.4586 -16.22932,6.2421 -7.84715,1.9617 -15.33761,1.9617 z"
         style=""
         id="path4146" />
      <path
         d="m 632.97876,983.36211 q 0,-17.12105 5.35033,-29.78349 5.52867,-12.66244 14.26754,-21.04462 8.73887,-8.38218 19.26118,-12.4841 10.70066,-4.10192 21.22297,-4.10192 14.44588,0 25.68157,5.35033 11.23569,5.35033 18.90449,14.62423 7.6688,9.09556 11.59238,21.40131 3.92357,12.30575 3.92357,26.03826 0,15.51595 -4.81529,28.00009 -4.8153,12.3057 -13.19748,21.2229 -8.20384,8.7389 -19.08283,13.5542 -10.879,4.6369 -23.00641,4.6369 -12.4841,0 -23.54145,-4.6369 -10.87899,-4.637 -19.08283,-13.1975 -8.02549,-8.7389 -12.84079,-21.223 -4.63695,-12.48405 -4.63695,-28.35669 z m 18.19112,0 q 0,12.12741 3.03185,22.11469 3.2102,9.9873 8.73887,17.2994 5.70701,7.1338 13.37582,11.2357 7.6688,3.9236 16.76436,3.9236 9.45224,0 17.12104,-4.2803 7.84715,-4.2803 13.19748,-11.5924 5.52867,-7.3121 8.56052,-17.2994 3.03186,-9.98726 3.03186,-21.40129 0,-12.4841 -3.38854,-22.47138 -3.2102,-10.16562 -8.91722,-17.29939 -5.70701,-7.13377 -13.37582,-10.879 -7.6688,-3.74523 -16.22932,-3.74523 -8.56053,0 -16.22933,3.74523 -7.6688,3.74523 -13.37582,10.879 -5.70702,7.13377 -9.09556,17.29939 -3.21019,9.98728 -3.21019,22.47138 z"
         style=""
         id="path4148" />
      <path
         d="m 865.54242,954.64869 q 0,10.70065 -6.0637,18.90449 -5.88536,8.02549 -15.15926,12.66244 l -4.28026,1.42675 3.56688,1.42676 q 6.59874,4.4586 9.98728,10.879 3.56688,6.42037 5.88536,14.26757 2.49682,7.6688 4.63695,16.4076 2.31848,8.5606 6.42039,17.6561 l -17.83442,0 q -3.56689,-7.6688 -5.70702,-16.4077 -1.96179,-8.7388 -4.4586,-16.7643 -2.49682,-8.0255 -6.4204,-14.2676 -3.74523,-6.242 -10.70065,-8.91717 -0.53504,0.17835 -1.6051,0.17835 -3.92357,0.35669 -8.38218,0.17834 -4.45861,-0.35669 -9.45225,-1.60509 1.96179,-4.63696 5.88536,-7.66881 4.10192,-3.03185 9.80894,-3.21019 4.63695,-0.17835 9.2739,-2.14014 4.63695,-1.96178 8.20383,-5.17198 3.74523,-3.38854 6.06371,-8.02549 2.31847,-4.63695 2.31847,-10.16562 0,-5.35033 -2.31847,-9.80894 -2.31848,-4.63695 -6.24205,-8.02549 -3.92357,-3.38854 -9.2739,-5.35033 -5.17198,-1.96178 -11.23569,-1.96178 -4.99364,0 -9.09556,0.17834 -4.10191,0.17835 -10.52231,1.42676 l 0,117.52884 -16.9427,0 0,-128.05116 q 9.98728,-1.96178 18.36946,-3.03185 8.38218,-1.07006 18.19111,-1.07006 10.70066,0 19.43952,3.03185 8.73887,3.03185 14.80258,8.38218 6.24205,5.17198 9.45224,12.12741 3.38854,6.95542 3.38854,14.62423 l 0,0.35669 z"
         style=""
         id="path4150" />
      <path
         d="m 897.19578,918.62315 73.83452,0 0,12.84078 -56.89181,0 0,103.97467 59.56698,0 0,12.8408 -76.50969,0 0,-129.65625 z m 67.77082,55.46506 0,12.4841 -44.05103,0 q 1.96179,-5.17199 5.35033,-8.73887 3.56688,-3.74523 9.98727,-3.74523 l 28.71343,0 z"
         style=""
         id="path4152" />
    </g>
  </g>
</svg>
