<?xml version="1.0" encoding="iso-8859-1"?>
<!-- Generator: Adobe Illustrator 19.0.0, SVG Export Plug-In . SVG Version: 6.00 Build 0)  -->
<svg version="1.1" id="Capa_1" xmlns="http://www.w3.org/2000/svg" xmlns:xlink="http://www.w3.org/1999/xlink" x="0px" y="0px"
	 viewBox="0 0 512 512" style="enable-background:new 0 0 512 512;" xml:space="preserve">
<linearGradient id="SVGID_1_" gradientUnits="userSpaceOnUse" x1="0" y1="258" x2="512" y2="258" gradientTransform="matrix(1 0 0 -1 0 514)">
	<stop  offset="0" style="stop-color:#80D8FF"/>
	<stop  offset="0.16" style="stop-color:#88D1FF"/>
	<stop  offset="0.413" style="stop-color:#9FBEFE"/>
	<stop  offset="0.725" style="stop-color:#C4A0FD"/>
	<stop  offset="1" style="stop-color:#EA80FC"/>
</linearGradient>
<path style="fill:url(#SVGID_1_);" d="M256,0C114.508,0,0,114.497,0,256c0,141.493,114.497,256,256,256
	c141.492,0,256-114.497,256-256C512,114.507,397.503,0,256,0z M256,472c-119.384,0-216-96.607-216-216c0-119.385,96.607-216,216-216
	c119.384,0,216,96.607,216,216C472,375.385,375.393,472,256,472z M343.586,196.698L284.284,256l59.302,59.302
	c7.811,7.811,7.812,20.474,0.001,28.284c-7.811,7.811-20.476,7.81-28.284,0L256,284.284l-59.303,59.302
	c-7.808,7.809-20.471,7.812-28.284,0c-7.811-7.811-7.81-20.474,0.001-28.284L227.716,256l-59.302-59.302
	c-7.811-7.811-7.812-20.474-0.001-28.284s20.476-7.811,28.284,0L256,227.716l59.303-59.302c7.81-7.81,20.473-7.811,28.284,0
	C351.397,176.225,351.396,188.888,343.586,196.698z"/>
<g>
</g>
<g>
</g>
<g>
</g>
<g>
</g>
<g>
</g>
<g>
</g>
<g>
</g>
<g>
</g>
<g>
</g>
<g>
</g>
<g>
</g>
<g>
</g>
<g>
</g>
<g>
</g>
<g>
</g>
</svg>
