<?xml version="1.0" encoding="iso-8859-1"?>
<!-- Generator: Adobe Illustrator 19.0.0, SVG Export Plug-In . SVG Version: 6.00 Build 0)  -->
<svg version="1.1" id="Layer_1" xmlns="http://www.w3.org/2000/svg" xmlns:xlink="http://www.w3.org/1999/xlink" x="0px" y="0px"
	 viewBox="0 0 512.001 512.001" style="enable-background:new 0 0 512.001 512.001;" xml:space="preserve">
<path style="fill:#CCCCCC;" d="M409.267,187.675v243.475c-47.912-17.03-99.498,20.969-153.263,20.969
	s-105.351-37.999-153.274-20.969V187.675c0-84.646,68.617-153.274,153.263-153.274C340.65,34.402,409.267,103.029,409.267,187.675z"
	/>
<g>
	<path style="fill:#90BC42;" d="M72.313,382.058c-5.902,5.902-10.982,12.406-15.2,19.366c-3.829-19.717-13.412-37.851-27.931-52.37
		c-3.222-3.222-8.447-3.222-11.668,0c-3.222,3.222-3.222,8.447,0,11.668c15.699,15.7,24.525,36.442,24.966,58.573
		c-7.247-8.988-17.532-17.204-32.03-21.207c-4.392-1.215-8.937,1.364-10.15,5.757c-1.213,4.393,1.365,8.938,5.757,10.15
		c30.201,8.338,36.305,42.453,36.546,43.876c0.009,0.054,0.023,0.106,0.034,0.16c0.024,0.131,0.052,0.259,0.081,0.387
		c0.03,0.127,0.062,0.252,0.097,0.376c0.035,0.125,0.073,0.249,0.113,0.371c0.043,0.128,0.09,0.253,0.139,0.378
		c0.044,0.111,0.087,0.222,0.135,0.331c0.059,0.135,0.125,0.267,0.191,0.398c0.047,0.094,0.094,0.188,0.144,0.281
		c0.081,0.146,0.169,0.287,0.26,0.427c0.046,0.072,0.089,0.146,0.138,0.217c0.117,0.171,0.241,0.333,0.369,0.494
		c0.03,0.037,0.056,0.076,0.086,0.112c0.164,0.197,0.336,0.386,0.516,0.568c0.029,0.029,0.061,0.055,0.09,0.084
		c0.15,0.145,0.304,0.287,0.463,0.421c0.074,0.062,0.153,0.118,0.229,0.177c0.121,0.095,0.242,0.188,0.367,0.275
		c0.092,0.064,0.189,0.123,0.285,0.184c0.117,0.074,0.233,0.146,0.353,0.215c0.103,0.058,0.209,0.113,0.315,0.167
		c0.12,0.062,0.242,0.12,0.365,0.176c0.108,0.048,0.217,0.095,0.327,0.139c0.131,0.052,0.263,0.099,0.396,0.145
		c0.107,0.036,0.213,0.073,0.322,0.105c0.149,0.044,0.3,0.08,0.452,0.117c0.098,0.023,0.195,0.047,0.294,0.067
		c0.184,0.036,0.371,0.062,0.558,0.085c0.072,0.009,0.143,0.022,0.216,0.03c0.264,0.025,0.531,0.042,0.802,0.042
		c0.223,0,0.448-0.009,0.673-0.027c0.029-0.002,0.057-0.009,0.086-0.011c0.135-0.012,0.267-0.033,0.4-0.052
		c0.134-0.019,0.268-0.036,0.399-0.061c0.134-0.025,0.266-0.058,0.398-0.091c0.128-0.031,0.255-0.062,0.381-0.098
		c0.128-0.037,0.252-0.08,0.376-0.124c0.127-0.044,0.252-0.088,0.375-0.138c0.118-0.047,0.232-0.1,0.348-0.153
		c0.124-0.057,0.248-0.114,0.367-0.177c0.109-0.056,0.215-0.117,0.32-0.177c0.121-0.069,0.24-0.141,0.356-0.217
		c0.1-0.065,0.197-0.132,0.294-0.2c0.114-0.081,0.228-0.165,0.338-0.252c0.092-0.073,0.183-0.147,0.272-0.224
		c0.107-0.091,0.21-0.186,0.311-0.283c0.086-0.081,0.169-0.164,0.252-0.249c0.096-0.1,0.189-0.204,0.279-0.308
		c0.079-0.091,0.157-0.182,0.232-0.276c0.085-0.107,0.165-0.217,0.245-0.328c0.072-0.1,0.143-0.199,0.21-0.301
		c0.074-0.112,0.142-0.229,0.21-0.345c0.063-0.108,0.128-0.215,0.186-0.326c0.063-0.119,0.118-0.241,0.175-0.363
		c0.053-0.114,0.108-0.228,0.156-0.345c0.052-0.126,0.096-0.256,0.141-0.386c0.042-0.118,0.086-0.233,0.122-0.354
		c0.043-0.14,0.075-0.284,0.11-0.427c0.028-0.114,0.061-0.227,0.084-0.342c0.033-0.165,0.054-0.334,0.077-0.503
		c0.013-0.098,0.033-0.194,0.042-0.293c0.026-0.27,0.042-0.543,0.042-0.82v-2.505c0-22.784,8.872-44.204,24.982-60.314
		c3.222-3.222,3.222-8.446,0-11.668C80.76,378.836,75.535,378.836,72.313,382.058z"/>
	<path style="fill:#90BC42;" d="M511.701,403.848c-1.213-4.392-5.75-6.972-10.15-5.757c-14.496,4.002-24.782,12.219-32.029,21.205
		c0.44-22.133,9.267-42.874,24.965-58.572c3.223-3.222,3.223-8.446,0.001-11.668c-3.223-3.222-8.448-3.222-11.668,0
		c-14.52,14.518-24.103,32.653-27.932,52.371c-4.218-6.961-9.299-13.465-15.201-19.367c-3.221-3.221-8.446-3.222-11.668,0
		c-3.222,3.222-3.222,8.447,0.001,11.669c16.111,16.11,24.983,37.53,24.983,60.314v2.505c0,0.276,0.014,0.549,0.041,0.817
		c0.011,0.107,0.031,0.209,0.045,0.315c0.022,0.161,0.042,0.321,0.073,0.479c0.025,0.128,0.061,0.251,0.091,0.375
		c0.033,0.13,0.062,0.262,0.1,0.389c0.041,0.136,0.091,0.268,0.139,0.402c0.04,0.11,0.077,0.221,0.121,0.33
		c0.058,0.142,0.124,0.281,0.189,0.418c0.044,0.092,0.086,0.186,0.133,0.276c0.076,0.145,0.158,0.286,0.242,0.426
		c0.046,0.077,0.091,0.155,0.14,0.23c0.094,0.145,0.194,0.286,0.296,0.426c0.046,0.063,0.091,0.126,0.14,0.187
		c0.114,0.146,0.233,0.286,0.356,0.424c0.043,0.047,0.085,0.095,0.128,0.141c0.136,0.145,0.277,0.285,0.424,0.42
		c0.034,0.032,0.068,0.063,0.103,0.094c0.161,0.144,0.327,0.281,0.498,0.411c0.022,0.017,0.043,0.033,0.065,0.048
		c0.189,0.141,0.383,0.274,0.584,0.398c0.003,0.002,0.007,0.004,0.01,0.005c1.26,0.78,2.74,1.238,4.33,1.238
		c3.295,0,6.131-1.936,7.454-4.73c0.012-0.026,0.026-0.053,0.039-0.079c0.084-0.183,0.16-0.369,0.231-0.558
		c0.021-0.056,0.042-0.112,0.062-0.169c0.059-0.169,0.113-0.341,0.161-0.516c0.024-0.087,0.046-0.175,0.067-0.263
		c0.036-0.15,0.07-0.299,0.098-0.452c0.009-0.045,0.021-0.088,0.029-0.133c0.245-1.448,6.349-35.563,36.55-43.901
		C510.335,412.786,512.914,408.241,511.701,403.848z"/>
</g>
<path style="fill:#B27214;" d="M503.693,477.599H8.305c29.341-18.923,60.993-34.578,94.426-46.449
	c47.923-17.03,99.509-26.305,153.274-26.305s105.351,9.274,153.263,26.305C442.701,443.032,474.352,458.676,503.693,477.599z"/>
<path style="fill:#995C0D;" d="M281.858,405.59c-8.559-0.476-17.174-0.745-25.854-0.745c-53.765,0-105.351,9.274-153.274,26.305
	c-33.434,11.871-65.085,27.526-94.426,46.449h51.707c29.341-18.923,60.993-34.578,94.426-46.449
	C194.625,416.868,237.394,408.067,281.858,405.59z"/>
<path style="fill:#B3B3B3;" d="M130.235,187.674c0-69.349,56.415-125.77,125.759-125.77c69.349,0,125.769,56.42,125.769,125.77
	v206.135c-40.827-10.939-82.977-16.468-125.759-16.468c-42.781,0-84.933,5.529-125.77,16.469V187.674H130.235z"/>
<g>
	<path style="fill:#CCCCCC;" d="M224.41,185.796c0-19.109-15.545-34.654-34.654-34.654h-26.403c-4.557,0-8.251,3.694-8.251,8.251
		v52.805v44.004c0,4.557,3.694,8.251,8.251,8.251s8.251-3.694,8.251-8.251V220.45h18.151c10.008,0,18.151,8.142,18.151,18.151
		v17.601c0,4.557,3.694,8.251,8.251,8.251s8.251-3.694,8.251-8.251v-17.601c0-10.568-4.761-20.042-12.245-26.403
		C219.649,205.838,224.41,196.365,224.41,185.796z M171.605,203.948v-36.303h18.151c10.008,0,18.151,8.142,18.151,18.151
		c0,10.008-8.142,18.151-18.151,18.151L171.605,203.948L171.605,203.948z"/>
	<path style="fill:#CCCCCC;" d="M333.246,151.142h-26.403c-4.558,0-8.251,3.694-8.251,8.251v52.805v44.004
		c0,4.557,3.693,8.251,8.251,8.251c4.558,0,8.251-3.694,8.251-8.251V220.45h18.151c19.108,0,34.654-15.545,34.654-34.654
		C367.9,166.689,352.354,151.142,333.246,151.142z M333.246,203.948h-18.151v-36.303h18.151c10.009,0,18.151,8.142,18.151,18.151
		C351.398,195.805,343.254,203.948,333.246,203.948z"/>
	<path style="fill:#CCCCCC;" d="M260.415,151.142c-4.557,0-8.251,3.694-8.251,8.251v96.808c0,4.557,3.694,8.251,8.251,8.251
		c4.558,0,8.251-3.694,8.251-8.251v-96.808C268.666,154.837,264.972,151.142,260.415,151.142z"/>
</g>
<g>
	<path style="fill:#999999;" d="M358.31,299.335H153.691c-3.645,0-6.601-2.956-6.601-6.601s2.956-6.601,6.601-6.601H358.31
		c3.645,0,6.601,2.956,6.601,6.601S361.955,299.335,358.31,299.335z"/>
	<path style="fill:#999999;" d="M335.061,333.988h-158.12c-3.645,0-6.601-2.956-6.601-6.601s2.956-6.601,6.601-6.601h158.121
		c3.645,0,6.601,2.956,6.601,6.601S338.706,333.988,335.061,333.988z"/>
</g>
<g>
</g>
<g>
</g>
<g>
</g>
<g>
</g>
<g>
</g>
<g>
</g>
<g>
</g>
<g>
</g>
<g>
</g>
<g>
</g>
<g>
</g>
<g>
</g>
<g>
</g>
<g>
</g>
<g>
</g>
</svg>
