<?xml version="1.0" encoding="UTF-8" standalone="no"?>
<!-- Created with Inkscape (http://www.inkscape.org/) -->

<svg
   xmlns:dc="http://purl.org/dc/elements/1.1/"
   xmlns:cc="http://creativecommons.org/ns#"
   xmlns:rdf="http://www.w3.org/1999/02/22-rdf-syntax-ns#"
   xmlns:svg="http://www.w3.org/2000/svg"
   xmlns="http://www.w3.org/2000/svg"
   xmlns:sodipodi="http://sodipodi.sourceforge.net/DTD/sodipodi-0.dtd"
   xmlns:inkscape="http://www.inkscape.org/namespaces/inkscape"
   width="210mm"
   height="297mm"
   viewBox="0 0 744.09448819 1052.3622047"
   id="svg2"
   version="1.1"
   inkscape:version="0.91 r13725"
   sodipodi:docname="refres.svg">
  <defs
     id="defs4" />
  <sodipodi:namedview
     id="base"
     pagecolor="#ffffff"
     bordercolor="#666666"
     borderopacity="1.0"
     inkscape:pageopacity="0.0"
     inkscape:pageshadow="2"
     inkscape:zoom="0.7"
     inkscape:cx="136.35697"
     inkscape:cy="288.88733"
     inkscape:document-units="px"
     inkscape:current-layer="layer1"
     showgrid="false"
     inkscape:window-width="1536"
     inkscape:window-height="801"
     inkscape:window-x="-8"
     inkscape:window-y="-8"
     inkscape:window-maximized="1" />
  <metadata
     id="metadata7">
    <rdf:RDF>
      <cc:Work
         rdf:about="">
        <dc:format>image/svg+xml</dc:format>
        <dc:type
           rdf:resource="http://purl.org/dc/dcmitype/StillImage" />
        <dc:title></dc:title>
      </cc:Work>
    </rdf:RDF>
  </metadata>
  <g
     inkscape:label="Ebene 1"
     inkscape:groupmode="layer"
     id="layer1">
    <rect
       style="opacity:1;fill:#666666;fill-opacity:1;stroke:none;stroke-width:11.5;stroke-linecap:round;stroke-miterlimit:4;stroke-dasharray:none;stroke-opacity:1"
       id="rect4193"
       width="647.14288"
       height="457.14288"
       x="31.428572"
       y="476.64792" />
    <path
       style="color:#000000;font-style:normal;font-variant:normal;font-weight:normal;font-stretch:normal;font-size:medium;line-height:normal;font-family:sans-serif;text-indent:0;text-align:start;text-decoration:none;text-decoration-line:none;text-decoration-style:solid;text-decoration-color:#000000;letter-spacing:normal;word-spacing:normal;text-transform:none;direction:ltr;block-progression:tb;writing-mode:lr-tb;baseline-shift:baseline;text-anchor:start;white-space:normal;clip-rule:nonzero;display:inline;overflow:visible;visibility:visible;opacity:1;isolation:auto;mix-blend-mode:normal;color-interpolation:sRGB;color-interpolation-filters:linearRGB;solid-color:#000000;solid-opacity:1;fill:#ffffff;fill-opacity:1;fill-rule:nonzero;stroke:none;stroke-width:11.5;stroke-linecap:round;stroke-linejoin:miter;stroke-miterlimit:4;stroke-dasharray:none;stroke-dashoffset:0;stroke-opacity:1;color-rendering:auto;image-rendering:auto;shape-rendering:auto;text-rendering:auto;enable-background:accumulate"
       d="m 344.28487,541.46959 c -94.629,0 -171.46289,76.83584 -171.46289,171.46484 0,27.54975 6.50731,53.62004 18.07032,76.70117 a 5.7508871,5.7508871 0 0 0 10.2832,-5.15234 c -10.78469,-21.52751 -16.85352,-45.8085 -16.85352,-71.54883 0,-88.41394 71.54896,-159.96484 159.96289,-159.96484 45.00448,0 85.60965,18.55387 114.66993,48.43164 l -19.48047,-0.64258 a 5.750575,5.750575 0 1 0 -0.37891,11.49414 l 37.99219,1.25195 0.3418,-4.3457 a 5.750575,5.750575 0 0 0 0.2207,-2.81055 l 2.36719,-30.10742 a 5.750575,5.750575 0 0 0 -5.93555,-6.27734 5.750575,5.750575 0 0 0 -5.5293,5.37695 l -1.41406,17.98242 C 435.98857,561.34005 392.42407,541.46959 344.28487,541.46959 Z m 153.46485,103.09765 a 5.750575,5.750575 0 0 0 -5.28125,7.99805 c 7.5952,18.62384 11.78125,38.99307 11.78125,60.36914 0,88.41394 -71.55091,159.96289 -159.96485,159.96289 -41.18936,0 -78.68164,-15.54059 -107.02734,-41.08203 l 18.8457,-1.48242 a 5.750575,5.750575 0 0 0 -0.50195,-11.48828 5.750575,5.750575 0 0 0 -0.40039,0.0234 l -37.26172,2.93164 1.25195,37.99024 a 5.750575,5.750575 0 1 0 11.49414,-0.37891 l -0.61328,-18.58984 c 30.32498,27.09572 70.37551,43.57617 114.21289,43.57617 94.62901,0 171.46485,-76.83389 171.46485,-171.46289 0,-22.8787 -4.48784,-44.73902 -12.63281,-64.71094 a 5.750575,5.750575 0 0 0 -5.36719,-3.65625 z"
       id="path4136"
       inkscape:export-xdpi="300"
       inkscape:export-ydpi="300"
       inkscape:connector-curvature="0" />
    <path
       style="opacity:1;fill:none;fill-opacity:1;stroke:#666666;stroke-width:11.5;stroke-linecap:round;stroke-miterlimit:4;stroke-dasharray:none;stroke-opacity:1"
       d="m 485.79304,210.39393 c 7.87009,19.29788 12.20695,40.41232 12.20695,62.5397 0,91.52147 -74.19281,165.71428 -165.71428,165.71428 -46.85753,0 -89.17274,-19.44799 -119.31417,-50.7125 M 184.0338,347.05927 c -11.17385,-22.30432 -17.46237,-47.4806 -17.46237,-74.12564 0,-91.52147 74.19281,-165.71428 165.71428,-165.71428 51.36464,0 97.27111,23.36923 127.66717,60.05546"
       id="path4136-7"
       inkscape:connector-curvature="0"
       sodipodi:nodetypes="cssccssc" />
    <path
       inkscape:connector-curvature="0"
       id="path4141-8"
       d="m 427.28572,166.50507 32.50001,1.07142 2.49999,-31.78573"
       style="fill:none;fill-rule:evenodd;stroke:#000000;stroke-width:11.5;stroke-linecap:round;stroke-linejoin:miter;stroke-miterlimit:4;stroke-dasharray:none;stroke-opacity:1"
       sodipodi:nodetypes="ccc" />
    <path
       inkscape:connector-curvature="0"
       id="path4141-9-2"
       d="m 212.93755,419.60032 -1.07142,-32.50001 31.78574,-2.49999"
       style="fill:none;fill-rule:evenodd;stroke:#000000;stroke-width:11.5;stroke-linecap:round;stroke-linejoin:miter;stroke-miterlimit:4;stroke-dasharray:none;stroke-opacity:1"
       sodipodi:nodetypes="ccc" />
  </g>
</svg>
