<?xml version="1.0" encoding="iso-8859-1"?>
<!-- Generator: Adobe Illustrator 19.0.0, SVG Export Plug-In . SVG Version: 6.00 Build 0)  -->
<svg version="1.1" id="Capa_1" xmlns="http://www.w3.org/2000/svg" xmlns:xlink="http://www.w3.org/1999/xlink" x="0px" y="0px"
	 viewBox="0 0 512 512" style="enable-background:new 0 0 512 512;" xml:space="preserve">
<linearGradient id="SVGID_1_" gradientUnits="userSpaceOnUse" x1="1.9992" y1="258" x2="510.0008" y2="258" gradientTransform="matrix(1 0 0 -1 0 514)">
	<stop  offset="0" style="stop-color:#80D8FF"/>
	<stop  offset="0.16" style="stop-color:#88D1FF"/>
	<stop  offset="0.413" style="stop-color:#9FBEFE"/>
	<stop  offset="0.725" style="stop-color:#C4A0FD"/>
	<stop  offset="1" style="stop-color:#EA80FC"/>
</linearGradient>
<path style="fill:url(#SVGID_1_);" d="M256,336c-44.112,0-80-35.888-80-80s35.887-80,80-80s80,35.888,80,80S300.112,336,256,336z
	 M256,216c-22.056,0-40,17.944-40,40s17.944,40,40,40s40-17.944,40-40S278.056,216,256,216z M306.152,512H205.848
	c-9.937,0-18.367-7.296-19.793-17.131l-9.224-63.63c-12.671-5.505-24.683-12.311-35.903-20.34l-61.446,24.199
	c-9.149,3.603-19.557,0.023-24.553-8.443L4.778,341.677c-5.142-8.711-2.97-19.889,5.059-26.041l51.788-39.683
	c-1.367-12.887-1.456-26.182,0-39.907L9.836,196.364c-8.028-6.152-10.2-17.33-5.059-26.041L54.93,85.346
	c4.996-8.466,15.403-12.047,24.553-8.443l61.445,24.2c11.222-8.031,23.233-14.835,35.904-20.341l9.224-63.63
	C187.481,7.296,195.911,0,205.848,0h100.304c9.937,0,18.367,7.296,19.793,17.131l9.224,63.63
	c12.671,5.505,24.682,12.31,35.904,20.341l61.445-24.2c9.148-3.603,19.557-0.023,24.553,8.443l50.152,84.978
	c5.142,8.711,2.97,19.889-5.059,26.041l-51.788,39.683c1.367,12.887,1.456,26.182,0,39.907l51.788,39.683
	c8.028,6.152,10.2,17.33,5.059,26.041l-50.152,84.978c-4.996,8.465-15.404,12.046-24.553,8.443L371.072,410.9
	c-11.22,8.03-23.232,14.835-35.903,20.34l-9.224,63.63C324.519,504.704,316.089,512,306.152,512z M223.157,472h65.685l8.396-57.925
	c1.058-7.294,6.04-13.415,12.968-15.93c16.412-5.958,31.591-14.542,45.114-25.515c5.602-4.544,13.214-5.72,19.93-3.077
	l56.047,22.073l32.47-55.019l-46.96-35.984c-5.902-4.522-8.809-11.946-7.545-19.274c2.847-16.512,2.944-33.624,0-50.699
	c-1.264-7.328,1.643-14.751,7.545-19.274l46.96-35.984l-32.47-55.019l-56.047,22.073c-6.713,2.644-14.328,1.468-19.93-3.077
	c-13.524-10.972-28.703-19.556-45.114-25.514c-6.928-2.515-11.91-8.636-12.968-15.93L288.843,40h-65.685l-8.396,57.925
	c-1.058,7.294-6.04,13.415-12.968,15.93c-16.411,5.958-31.59,14.542-45.114,25.514c-5.602,4.544-13.215,5.722-19.93,3.077
	l-56.047-22.073l-32.471,55.019l46.96,35.984c5.902,4.522,8.809,11.946,7.545,19.274c-2.847,16.512-2.944,33.624,0,50.699
	c1.264,7.328-1.643,14.751-7.545,19.274l-46.96,35.984l32.471,55.019l56.047-22.073c6.712-2.643,14.328-1.467,19.93,3.077
	c13.523,10.972,28.702,19.556,45.114,25.515c6.928,2.515,11.91,8.636,12.968,15.93L223.157,472z"/>
<g>
</g>
<g>
</g>
<g>
</g>
<g>
</g>
<g>
</g>
<g>
</g>
<g>
</g>
<g>
</g>
<g>
</g>
<g>
</g>
<g>
</g>
<g>
</g>
<g>
</g>
<g>
</g>
<g>
</g>
</svg>
