<?xml version="1.0" encoding="UTF-8" standalone="no"?>
<!-- Created with Inkscape (http://www.inkscape.org/) -->

<svg
   xmlns:dc="http://purl.org/dc/elements/1.1/"
   xmlns:cc="http://creativecommons.org/ns#"
   xmlns:rdf="http://www.w3.org/1999/02/22-rdf-syntax-ns#"
   xmlns:svg="http://www.w3.org/2000/svg"
   xmlns="http://www.w3.org/2000/svg"
   xmlns:sodipodi="http://sodipodi.sourceforge.net/DTD/sodipodi-0.dtd"
   xmlns:inkscape="http://www.inkscape.org/namespaces/inkscape"
   width="148.991"
   height="148.991"
   viewBox="0 0 148.991 148.991"
   id="svg2"
   version="1.1"
   inkscape:version="0.91 r13725"
   sodipodi:docname="settings.svg">
  <defs
     id="defs4" />
  <sodipodi:namedview
     id="base"
     pagecolor="#ffffff"
     bordercolor="#666666"
     borderopacity="1.0"
     inkscape:pageopacity="0.0"
     inkscape:pageshadow="2"
     inkscape:zoom="0.24748737"
     inkscape:cx="-240.80675"
     inkscape:cy="357.26766"
     inkscape:document-units="px"
     inkscape:current-layer="layer1"
     showgrid="false"
     units="px"
     inkscape:window-width="1536"
     inkscape:window-height="801"
     inkscape:window-x="-8"
     inkscape:window-y="-8"
     inkscape:window-maximized="1" />
  <metadata
     id="metadata7">
    <rdf:RDF>
      <cc:Work
         rdf:about="">
        <dc:format>image/svg+xml</dc:format>
        <dc:type
           rdf:resource="http://purl.org/dc/dcmitype/StillImage" />
        <dc:title></dc:title>
      </cc:Work>
    </rdf:RDF>
  </metadata>
  <g
     inkscape:label="Ebene 1"
     inkscape:groupmode="layer"
     id="layer1"
     transform="translate(0,-903.37116)">
    <path
       style="opacity:1;fill:none;fill-opacity:1;stroke:#d40055;stroke-width:4.0999999;stroke-linecap:round;stroke-miterlimit:4;stroke-dasharray:none;stroke-opacity:1"
       d="m 80.089071,1050.3065 c -7.31982,0.063 -15.93656,-0.527 -24.01367,-1.8457 -4.17041,-0.9832 -4.81513,-1.1319 -4.03125,-5.0078 l 2.97266,-15.9903 a 54.999992,55 0 0 1 -15.06055,-8.2519 l -12.09569,10.0644 c -2.99952,2.577 -3.44523,2.0869 -6.33985,-1.0722 -4.95382,-6.1594 -10.4538,-14.4526 -14.7695297,-22.75 -1.70691,-3.9281 -1.97443,-4.5357 1.59961,-6.2266 l 12.9960897,-6.40039 a 54.999992,55 0 0 1 -2.78711,-17.07031 54.999992,55 0 0 1 0.0274,-0.53516 l -13.3984397,-3.0664 c -3.8682,-0.82146 -3.74782,-1.47384 -2.99219,-5.69141 1.89185,-7.67508 5.14609,-17.07632 9.1249997,-25.54102 2.08833,-3.74137 2.40906,-4.32182 5.92188,-2.50586 l 11.39453,5.66407 a 54.999992,55 0 0 1 10.99413,-11.59375 l -5.70897,-11.02539 c -1.87331,-3.48259 -1.29844,-3.81158 2.40819,-5.96094 7.07927,-3.51706 16.35794,-7.11006 25.38867,-9.54492 4.20463,-0.82465 4.85352,-0.95576 5.73828,2.89843 l 2.95899,12.01368 a 54.999992,55 0 0 1 3.14257,-0.11133 54.999992,55 0 0 1 13.88086,1.84961 l 5.05664,-11.63672 c 1.51877,-3.65117 2.13587,-3.41284 6.14258,-1.89453 7.196299,3.27094 15.839069,8.20035 23.427729,13.66797 3.29355,2.74071 3.80596,3.16227 1.375,6.28125 l -8.23242,10.9121 a 54.999992,55 0 0 1 7.38476,10.91797 l 13.35352,-4.55468 c 3.72208,-1.3356 3.96177,-0.71901 5.53711,3.26562 2.42724,7.52292 4.60256,17.23133 5.66992,26.52344 0.19138,4.28046 0.22603,4.94324 -3.7168,5.24609 l -15.38281,1.42578 a 54.999992,55 0 0 1 -4.82422,16.45704 l 13.25,9.03126 c 3.30238,2.1753 2.95234,2.7389 0.71094,6.3906 -4.56005,6.4569 -11.01921,14.0239 -17.81055,20.4551 -3.30872,2.7224 -3.81691,3.1456 -6.42578,0.1738 l -11.20116,-12.3594 a 54.999992,55 0 0 1 -14.841799,6.1485 l 0.88086,16.7461 c 0.26993,3.9452 -0.38914,4.0065 -4.65234,4.4355 -0.98747,0.035 -2.00705,0.059 -3.05274,0.068 z m -5.58984,-57.50979 a 14.899748,14.89975 0 0 0 14.90039,-14.89843 14.899748,14.89975 0 0 0 -14.90039,-14.9004 14.899748,14.89975 0 0 0 -14.90039,14.9004 14.899748,14.89975 0 0 0 14.90039,14.89843 z"
       id="rect4136"
       inkscape:connector-curvature="0" />
  </g>
</svg>
