<?xml version="1.0" encoding="iso-8859-1"?>
<!-- Generator: Adobe Illustrator 19.0.0, SVG Export Plug-In . SVG Version: 6.00 Build 0)  -->
<svg version="1.1" id="Capa_1" xmlns="http://www.w3.org/2000/svg" xmlns:xlink="http://www.w3.org/1999/xlink" x="0px" y="0px"
	 viewBox="0 0 512 512" style="enable-background:new 0 0 512 512;" xml:space="preserve">
<linearGradient id="SVGID_1_" gradientUnits="userSpaceOnUse" x1="0" y1="258" x2="512" y2="258" gradientTransform="matrix(1 0 0 -1 0 514)">
	<stop  offset="0" style="stop-color:#80D8FF"/>
	<stop  offset="0.16" style="stop-color:#88D1FF"/>
	<stop  offset="0.413" style="stop-color:#9FBEFE"/>
	<stop  offset="0.725" style="stop-color:#C4A0FD"/>
	<stop  offset="1" style="stop-color:#EA80FC"/>
</linearGradient>
<path style="fill:url(#SVGID_1_);" d="M24.576,504.212C9.188,494.701,0,478.223,0,460.134V51.867
	C0,33.778,9.188,17.301,24.576,7.789C39.965-1.723,58.817-2.574,75.003,5.518l408.348,204.134
	C501.022,218.486,512,236.246,512,256.001s-10.978,37.515-28.649,46.349L75.003,506.483
	C59.121,514.423,40.251,513.901,24.576,504.212z M45.606,41.814C43.921,42.856,40,45.921,40,51.867v408.267
	c0,5.947,3.921,9.012,5.606,10.053c1.687,1.042,6.186,3.182,11.51,0.519l408.348-204.134C471.363,263.623,472,258.197,472,256
	c0-2.196-0.637-7.622-6.536-10.572L57.116,41.295C53.153,39.314,48.958,39.741,45.606,41.814z"/>
<g>
</g>
<g>
</g>
<g>
</g>
<g>
</g>
<g>
</g>
<g>
</g>
<g>
</g>
<g>
</g>
<g>
</g>
<g>
</g>
<g>
</g>
<g>
</g>
<g>
</g>
<g>
</g>
<g>
</g>
</svg>
